
<svg xmlns="http://www.w3.org/2000/svg" version="1.1" xmlns:xlink="http://www.w3.org/1999/xlink" preserveAspectRatio="none" x="0px" y="0px" width="64px" height="64px" viewBox="0 0 64 64">
<defs>
<g id="Layer0_0_FILL">
<path fill="#CC6633" stroke="none" d="
M 35.65 37.15
L 16 37.15 16 61.4 35.65 61.4 35.65 37.15
M 58.5 13.65
L 41.75 13.65 41.75 45.75 58.5 45.75 58.5 13.65
M 23.75 14.4
L 9.65 14.4 9.65 29.9 23.75 29.9 23.75 14.4 Z"/>
</g>

<path id="Layer0_0_1_STROKES" stroke="#000000" stroke-width="1" stroke-linejoin="round" stroke-linecap="round" fill="none" d="
M 41.75 13.65
L 58.5 13.65 58.5 45.75 41.75 45.75 41.75 13.65 Z
M 16 37.15
L 35.65 37.15 35.65 61.4 16 61.4 16 37.15 Z
M 9.65 14.4
L 23.75 14.4 23.75 29.9 9.65 29.9 9.65 14.4 Z"/>
</defs>

<g transform="matrix( 1, 0, 0, 1, 0,0) ">
<use xlink:href="#Layer0_0_FILL"/>

<use xlink:href="#Layer0_0_1_STROKES"/>
</g>
</svg>
